<?xml version="1.0" standalone="no"?>
<!DOCTYPE svg PUBLIC "-//W3C//DTD SVG 20010904//EN"
 "http://www.w3.org/TR/2001/REC-SVG-20010904/DTD/svg10.dtd">
<svg version="1.0" xmlns="http://www.w3.org/2000/svg"
 width="481.000000pt" height="481.000000pt" viewBox="0 0 481.000000 481.000000"
 preserveAspectRatio="xMidYMid meet">
<metadata>
Created by potrace 1.14, written by Peter Selinger 2001-2017
</metadata>
<g transform="translate(0.000000,481.000000) scale(0.100000,-0.100000)"
fill="#000000" stroke="none">
<path d="M678 4795 c-37 -8 -72 -17 -78 -20 -5 -3 -19 -8 -30 -10 -40 -8 -168
-75 -227 -119 -168 -127 -270 -285 -330 -511 -4 -16 -8 -786 -9 -1710 -3
-1841 -6 -1733 57 -1895 81 -212 277 -402 491 -477 153 -54 81 -52 1853 -52
1787 0 1700 -3 1851 54 111 42 202 102 294 194 127 128 198 258 234 432 14 65
16 268 16 1714 0 1098 -4 1661 -11 1705 -28 178 -103 324 -234 456 -96 97
-185 156 -297 198 -67 26 -81 29 -173 46 -29 5 -754 9 -1695 8 -1328 0 -1658
-3 -1712 -13z"/>
</g>
</svg>
